<svg xmlns="http://www.w3.org/2000/svg" viewBox="0 0 800 640" width="800" height="640">
  <defs>
    <linearGradient id="bg" x1="0%" y1="0%" x2="100%" y2="100%">
      <stop offset="0%" style="stop-color:#f8fafc"/>
      <stop offset="100%" style="stop-color:#eef2ff"/>
    </linearGradient>
    <linearGradient id="scoreGrad" x1="0%" y1="0%" x2="100%" y2="0%">
      <stop offset="0%" style="stop-color:#6366f1"/>
      <stop offset="100%" style="stop-color:#818cf8"/>
    </linearGradient>
  </defs>
  <rect width="800" height="640" fill="url(#bg)"/>

  <!-- Title -->
  <text x="400" y="42" text-anchor="middle" font-family="system-ui, sans-serif" font-size="22" font-weight="700" fill="#111827">Generation Results</text>
  <text x="400" y="60" text-anchor="middle" font-family="monospace, sans-serif" font-size="11" fill="#9ca3af">job_7f3a91e2-bc44</text>

  <!-- Card -->
  <rect x="100" y="75" width="600" height="530" rx="16" fill="white" stroke="#e2e8f0" stroke-width="1.5"/>

  <!-- Status badge -->
  <rect x="300" y="100" width="200" height="36" rx="18" fill="#dcfce7"/>
  <circle cx="322" cy="118" r="6" fill="#22c55e"/>
  <text x="400" y="122" text-anchor="middle" font-family="system-ui, sans-serif" font-size="13" font-weight="600" fill="#166534">Generation Complete</text>

  <!-- Stats row -->
  <rect x="130" y="152" width="160" height="64" rx="10" fill="#f8fafc"/>
  <text x="210" y="174" text-anchor="middle" font-family="system-ui, sans-serif" font-size="11" fill="#9ca3af">ROWS GENERATED</text>
  <text x="210" y="200" text-anchor="middle" font-family="system-ui, sans-serif" font-size="22" font-weight="700" fill="#1e293b">45,230</text>

  <rect x="310" y="152" width="160" height="64" rx="10" fill="#f8fafc"/>
  <text x="390" y="174" text-anchor="middle" font-family="system-ui, sans-serif" font-size="11" fill="#9ca3af">MODEL</text>
  <text x="390" y="200" text-anchor="middle" font-family="system-ui, sans-serif" font-size="18" font-weight="700" fill="#1e293b">GaussianCopula</text>

  <rect x="490" y="152" width="160" height="64" rx="10" fill="#f8fafc"/>
  <text x="570" y="174" text-anchor="middle" font-family="system-ui, sans-serif" font-size="11" fill="#9ca3af">GENERATION TIME</text>
  <text x="570" y="200" text-anchor="middle" font-family="system-ui, sans-serif" font-size="22" font-weight="700" fill="#1e293b">58s</text>

  <!-- Quality Score section -->
  <text x="130" y="244" font-family="system-ui, sans-serif" font-size="15" font-weight="700" fill="#111827">Quality Score</text>

  <!-- Overall score -->
  <rect x="130" y="254" width="540" height="50" rx="10" fill="#eef2ff"/>
  <text x="155" y="280" font-family="system-ui, sans-serif" font-size="13" fill="#3730a3" font-weight="600">Overall</text>
  <rect x="230" y="265" width="340" height="16" rx="8" fill="#c7d2fe"/>
  <rect x="230" y="265" width="306" height="16" rx="8" fill="url(#scoreGrad)"/>
  <text x="590" y="278" font-family="system-ui, sans-serif" font-size="14" font-weight="700" fill="#4338ca">90%</text>

  <!-- Per-column bars -->
  <!-- age -->
  <text x="155" y="326" font-family="monospace, sans-serif" font-size="11" fill="#6b7280">age</text>
  <rect x="230" y="315" width="340" height="10" rx="5" fill="#e2e8f0"/>
  <rect x="230" y="315" width="323" height="10" rx="5" fill="#6366f1"/>
  <text x="590" y="325" font-family="system-ui, sans-serif" font-size="11" font-weight="600" fill="#374151">95%</text>

  <!-- revenue -->
  <text x="155" y="346" font-family="monospace, sans-serif" font-size="11" fill="#6b7280">revenue</text>
  <rect x="230" y="335" width="340" height="10" rx="5" fill="#e2e8f0"/>
  <rect x="230" y="335" width="306" height="10" rx="5" fill="#6366f1"/>
  <text x="590" y="345" font-family="system-ui, sans-serif" font-size="11" font-weight="600" fill="#374151">90%</text>

  <!-- country -->
  <text x="155" y="366" font-family="monospace, sans-serif" font-size="11" fill="#6b7280">country</text>
  <rect x="230" y="355" width="340" height="10" rx="5" fill="#e2e8f0"/>
  <rect x="230" y="355" width="289" height="10" rx="5" fill="#6366f1"/>
  <text x="590" y="365" font-family="system-ui, sans-serif" font-size="11" font-weight="600" fill="#374151">85%</text>

  <!-- signup_date -->
  <text x="155" y="386" font-family="monospace, sans-serif" font-size="11" fill="#6b7280">signup_date</text>
  <rect x="230" y="375" width="340" height="10" rx="5" fill="#e2e8f0"/>
  <rect x="230" y="375" width="272" height="10" rx="5" fill="#818cf8"/>
  <text x="590" y="385" font-family="system-ui, sans-serif" font-size="11" font-weight="600" fill="#374151">80%</text>

  <!-- email -->
  <text x="155" y="406" font-family="monospace, sans-serif" font-size="11" fill="#6b7280">email</text>
  <rect x="230" y="395" width="340" height="10" rx="5" fill="#e2e8f0"/>
  <rect x="230" y="395" width="289" height="10" rx="5" fill="#818cf8"/>
  <text x="590" y="405" font-family="system-ui, sans-serif" font-size="11" font-weight="600" fill="#374151">85%</text>

  <!-- Divider -->
  <line x1="130" y1="425" x2="670" y2="425" stroke="#f1f5f9" stroke-width="1"/>

  <!-- Download section -->
  <text x="130" y="452" font-family="system-ui, sans-serif" font-size="15" font-weight="700" fill="#111827">Download</text>
  <rect x="130" y="462" width="390" height="50" rx="10" fill="#f0fdf4" stroke="#bbf7d0" stroke-width="1"/>
  <text x="150" y="483" font-family="system-ui, sans-serif" font-size="12" font-weight="600" fill="#166534">synthetic_customers_45230rows.csv</text>
  <text x="150" y="500" font-family="system-ui, sans-serif" font-size="11" fill="#4ade80">Expires in 23h 58m</text>

  <rect x="530" y="462" width="140" height="50" rx="10" fill="#6366f1"/>
  <text x="600" y="491" text-anchor="middle" font-family="system-ui, sans-serif" font-size="13" font-weight="600" fill="white">Download CSV</text>

  <!-- Share link -->
  <rect x="130" y="528" width="540" height="40" rx="8" fill="#f8fafc" stroke="#e2e8f0" stroke-width="1"/>
  <text x="150" y="548" font-family="system-ui, sans-serif" font-size="11" fill="#9ca3af">Shareable link:</text>
  <text x="240" y="548" font-family="monospace, sans-serif" font-size="11" fill="#6366f1">http://localhost:3000/jobs/job_7f3a91e2-bc44</text>

  <!-- Back link -->
  <text x="400" y="622" text-anchor="middle" font-family="system-ui, sans-serif" font-size="12" fill="#6366f1">← Generate another dataset</text>
</svg>
